<?xml version="1.0" standalone="no"?>
<!DOCTYPE svg PUBLIC "-//W3C//DTD SVG 20010904//EN"
 "http://www.w3.org/TR/2001/REC-SVG-20010904/DTD/svg10.dtd">
<svg version="1.0" xmlns="http://www.w3.org/2000/svg"
 width="512.000000pt" height="512.000000pt" viewBox="0 0 512.000000 512.000000"
 preserveAspectRatio="xMidYMid meet">

<g transform="translate(0.000000,512.000000) scale(0.100000,-0.100000)"
fill="#000000" stroke="none">
<path d="M740 4870 c-66 -18 -121 -64 -156 -130 -18 -34 -19 -94 -19 -1660 l0
-1625 22 -40 c25 -47 64 -85 113 -111 32 -18 69 -19 500 -22 l466 -3 -28 -252
c-31 -287 -33 -343 -16 -401 16 -53 90 -127 143 -144 22 -6 537 -64 1144 -128
981 -103 1108 -115 1148 -104 67 19 117 61 146 122 25 50 35 134 193 1638 181
1725 175 1630 120 1708 -30 42 -81 80 -126 92 -19 5 -271 34 -560 64 -289 31
-548 58 -577 61 l-52 6 -3 382 c-3 369 -4 383 -25 422 -25 47 -64 85 -113 111
-34 18 -83 19 -1165 20 -621 0 -1141 -2 -1155 -6z m2512 -1095 c792 -83 1097
-119 1114 -130 12 -8 25 -23 28 -32 3 -10 -68 -724 -159 -1587 -120 -1143
-169 -1575 -180 -1592 -8 -12 -23 -25 -33 -28 -10 -4 -511 46 -1112 109 -1023
108 -1096 117 -1117 137 -17 16 -23 32 -23 62 1 23 74 736 164 1585 l163 1544
27 24 c15 12 29 23 32 23 3 0 496 -52 1096 -115z"/>
</g>
</svg>
